<?xml version="1.0" encoding="utf-8"?>
<!-- Generator: Adobe Illustrator 24.1.3, SVG Export Plug-In . SVG Version: 6.00 Build 0)  -->
<svg version="1.1" id="Layer_1" xmlns="http://www.w3.org/2000/svg" xmlns:xlink="http://www.w3.org/1999/xlink" x="0px" y="0px"
	 viewBox="0 0 16 16" style="enable-background:new 0 0 16 16;" xml:space="preserve">
<style type="text/css">
	.st0{fill:none;}
	.st1{fill-rule:evenodd;clip-rule:evenodd;fill:#2DE8C4;fill-opacity:0.7;}
	.st2{fill-rule:evenodd;clip-rule:evenodd;fill:#9AA7B0;fill-opacity:0.8;}
	.st3{fill-rule:evenodd;clip-rule:evenodd;fill:#A5D844;fill-opacity:0.7;}
	.st4{fill-rule:evenodd;clip-rule:evenodd;fill:#E84242;fill-opacity:0.7;}
	.st5{fill-rule:evenodd;clip-rule:evenodd;fill:#752EE5;fill-opacity:0.7;}
	.st6{fill-rule:evenodd;clip-rule:evenodd;fill:#492A00;fill-opacity:0.7;}
	.st7{fill-rule:evenodd;clip-rule:evenodd;fill:#ED6E06;fill-opacity:0.7;}
	.st8{fill-rule:evenodd;clip-rule:evenodd;fill:#007535;fill-opacity:0.7;}
	.st9{opacity:0.6;}
</style>
<rect id="frame" x="0" class="st0" width="16" height="16"/>
<path class="st1" d="M1,16h15V9H1V16z"/>
<path class="st2" d="M7,1L3,5h4V1z"/>
<path class="st2" d="M8,1v5H3v2h10V1H8z"/>
<g class="st9">
	<path d="M1.8,10h1.7c1.1,0,1.8,0.5,1.8,1.4c0,0.7-0.3,1-0.9,1.2v0l1.2,2.1H4.5l-1-1.9H2.8v1.9h-1V10z M3.4,12.3
		c0.6,0,0.8-0.3,0.8-0.8c0-0.5-0.2-0.8-0.8-0.8H2.8v1.5H3.4z"/>
	<path d="M6.2,10H8c1.1,0,1.6,0.4,1.6,1.2c0,0.5-0.2,0.9-0.8,1.1v0c0.6,0.1,1,0.4,1,1.2c0,0.8-0.5,1.4-1.7,1.4H6.2V10z M7.8,12.1
		c0.5,0,0.8-0.2,0.8-0.7c0-0.5-0.3-0.7-0.8-0.7H7.2v1.3H7.8z M7.9,14.2c0.6,0,0.9-0.2,0.9-0.8c0-0.5-0.3-0.7-0.9-0.7H7.2v1.5H7.9z"
		/>
</g>
</svg>
