<?xml version="1.0" encoding="utf-8"?>
<!-- Generator: Adobe Illustrator 24.1.3, SVG Export Plug-In . SVG Version: 6.00 Build 0)  -->
<svg version="1.1" id="Layer_1" xmlns="http://www.w3.org/2000/svg" xmlns:xlink="http://www.w3.org/1999/xlink" x="0px" y="0px"
	 viewBox="0 0 16 16" style="enable-background:new 0 0 16 16;" xml:space="preserve">
<style type="text/css">
	.st0{fill:none;}
	.st1{fill-rule:evenodd;clip-rule:evenodd;fill:#2DE8C4;fill-opacity:0.7;}
	.st2{fill-rule:evenodd;clip-rule:evenodd;fill:#9AA7B0;fill-opacity:0.8;}
	.st3{fill-rule:evenodd;clip-rule:evenodd;fill:#A5D844;fill-opacity:0.7;}
	.st4{fill-rule:evenodd;clip-rule:evenodd;fill:#E84242;fill-opacity:0.7;}
	.st5{fill-rule:evenodd;clip-rule:evenodd;fill:#752EE5;fill-opacity:0.7;}
	.st6{fill-rule:evenodd;clip-rule:evenodd;fill:#492A00;fill-opacity:0.7;}
	.st7{fill-rule:evenodd;clip-rule:evenodd;fill:#ED6E06;fill-opacity:0.7;}
	.st8{fill-rule:evenodd;clip-rule:evenodd;fill:#007535;fill-opacity:0.7;}
	.st9{opacity:0.6;}
</style>
<rect id="frame_6_" x="0" class="st0" width="16" height="16"/>
<path class="st6" d="M1,16h15V9H1V16z"/>
<path class="st2" d="M7,1L3,5h4V1z"/>
<path class="st2" d="M8,1v5H3v2h10V1H8z"/>
<g class="st9">
	<path d="M1.8,14.7V14c0.4,0.2,0.9,0.3,1.4,0.3c0.6,0,0.9-0.3,0.9-0.6c0-0.4-0.2-0.5-0.7-0.7L3,12.8c-0.7-0.2-1.1-0.5-1.1-1.4
		c0-0.8,0.5-1.4,1.7-1.4c0.7,0,1,0.1,1.3,0.3V11c-0.3-0.1-0.7-0.2-1.3-0.2c-0.5,0-0.8,0.2-0.8,0.6c0,0.3,0.2,0.5,0.6,0.6l0.4,0.1
		c0.8,0.2,1.3,0.5,1.3,1.4c0,1-0.6,1.5-1.8,1.5C2.6,15,2.1,14.9,1.8,14.7z"/>
	<path d="M5.8,10.1h3.1v0.8H6.8v1.2h1.7v0.8H6.8v1.3H9v0.8H5.8V10.1z"/>
	<path d="M12.7,14.7l1.5,0.3L14,15.8L11.3,15c-1-0.3-1.7-0.9-1.7-2.4v-0.2c0-1.6,1-2.4,2.3-2.4c1.3,0,2.2,0.8,2.2,2.4v0.1
		C14.1,13.7,13.6,14.4,12.7,14.7z M13,12.7v-0.2c0-1.1-0.3-1.7-1.2-1.7c-0.8,0-1.2,0.6-1.2,1.6v0.3c0,1.1,0.4,1.7,1.2,1.7
		C12.6,14.3,13,13.7,13,12.7z"/>
</g>
</svg>
