<?xml version="1.0" encoding="utf-8"?>
<!-- Generator: Adobe Illustrator 24.1.3, SVG Export Plug-In . SVG Version: 6.00 Build 0)  -->
<svg version="1.1" id="Layer_1" xmlns="http://www.w3.org/2000/svg" xmlns:xlink="http://www.w3.org/1999/xlink" x="0px" y="0px"
	 viewBox="0 0 16 16" style="enable-background:new 0 0 16 16;" xml:space="preserve">
<style type="text/css">
	.st0{fill:none;}
	.st1{fill-rule:evenodd;clip-rule:evenodd;fill:#2DE8C4;fill-opacity:0.7;}
	.st2{fill-rule:evenodd;clip-rule:evenodd;fill:#9AA7B0;fill-opacity:0.8;}
	.st3{fill-rule:evenodd;clip-rule:evenodd;fill:#A5D844;fill-opacity:0.7;}
	.st4{fill-rule:evenodd;clip-rule:evenodd;fill:#E84242;fill-opacity:0.7;}
	.st5{fill-rule:evenodd;clip-rule:evenodd;fill:#752EE5;fill-opacity:0.7;}
	.st6{fill-rule:evenodd;clip-rule:evenodd;fill:#492A00;fill-opacity:0.7;}
	.st7{fill-rule:evenodd;clip-rule:evenodd;fill:#ED6E06;fill-opacity:0.7;}
	.st8{fill-rule:evenodd;clip-rule:evenodd;fill:#007535;fill-opacity:0.7;}
	.st9{opacity:0.6;}
</style>
<rect id="frame_7_" x="0" class="st0" width="16" height="16"/>
<path class="st5" d="M1,16h15V9H1V16z"/>
<path class="st2" d="M7,1L3,5h4V1z"/>
<path class="st2" d="M8,1v5H3v2h10V1H8z"/>
<g class="st9">
	<path d="M1.8,14.7V14c0.4,0.2,0.9,0.3,1.4,0.3c0.6,0,0.9-0.3,0.9-0.6c0-0.4-0.2-0.5-0.7-0.7L3,12.8c-0.7-0.2-1.1-0.5-1.1-1.4
		c0-0.8,0.5-1.4,1.7-1.4c0.7,0,1,0.1,1.3,0.3V11c-0.3-0.1-0.7-0.2-1.3-0.2c-0.5,0-0.8,0.2-0.8,0.6c0,0.3,0.2,0.5,0.6,0.6l0.4,0.1
		c0.8,0.2,1.3,0.5,1.3,1.4c0,1-0.6,1.5-1.8,1.5C2.6,15,2.1,14.9,1.8,14.7z"/>
	<path d="M5.8,10.1h1v2h1.9v-2h1v4.9h-1v-2.1H6.8v2.1h-1V10.1z"/>
</g>
</svg>
