<?xml version="1.0" encoding="utf-8"?>
<!-- Generator: Adobe Illustrator 24.1.3, SVG Export Plug-In . SVG Version: 6.00 Build 0)  -->
<svg version="1.1" id="Layer_1" xmlns="http://www.w3.org/2000/svg" xmlns:xlink="http://www.w3.org/1999/xlink" x="0px" y="0px"
	 viewBox="0 0 16 16" style="enable-background:new 0 0 16 16;" xml:space="preserve">
<style type="text/css">
	.st0{fill:none;}
	.st1{fill-rule:evenodd;clip-rule:evenodd;fill:#2DE8C4;fill-opacity:0.7;}
	.st2{fill-rule:evenodd;clip-rule:evenodd;fill:#9AA7B0;fill-opacity:0.8;}
	.st3{fill-rule:evenodd;clip-rule:evenodd;fill:#A5D844;fill-opacity:0.7;}
	.st4{fill-rule:evenodd;clip-rule:evenodd;fill:#E84242;fill-opacity:0.7;}
	.st5{fill-rule:evenodd;clip-rule:evenodd;fill:#752EE5;fill-opacity:0.7;}
	.st6{fill-rule:evenodd;clip-rule:evenodd;fill:#492A00;fill-opacity:0.7;}
	.st7{fill-rule:evenodd;clip-rule:evenodd;fill:#ED6E06;fill-opacity:0.7;}
	.st8{fill-rule:evenodd;clip-rule:evenodd;fill:#007535;fill-opacity:0.7;}
	.st9{opacity:0.6;}
</style>
<rect id="frame_4_" x="0" class="st0" width="16" height="16"/>
<path class="st8" d="M1,16h15V9H1V16z"/>
<path class="st2" d="M7,1L3,5h4V1z"/>
<path class="st2" d="M8,1v5H3v2h10V1H8z"/>
<g class="st9">
	<path d="M1.9,10.2h1.8c1.2,0,1.8,0.5,1.8,1.5c0,1-0.7,1.6-1.7,1.6H2.9V15h-1V10.2z M3.6,12.5c0.6,0,0.9-0.3,0.9-0.8
		c0-0.6-0.2-0.8-0.8-0.8H2.9v1.6H3.6z"/>
	<path d="M6.1,10.2h1v2h1.9v-2h1V15h-1v-2.1H7.1V15h-1V10.2z"/>
	<path d="M11.1,10.2h1.8c1.2,0,1.8,0.5,1.8,1.5c0,1-0.7,1.6-1.7,1.6h-0.8V15h-1V10.2z M12.7,12.5c0.6,0,0.9-0.3,0.9-0.8
		c0-0.6-0.2-0.8-0.8-0.8h-0.7v1.6H12.7z"/>
</g>
</svg>
